<svg fill="#104E8B" xmlns="http://www.w3.org/2000/svg"  viewBox="0 0 50 50" width="500px" height="500px"><path fill="none" stroke="#104E8B" stroke-linecap="round" stroke-miterlimit="10" stroke-width="2" d="M38.714 33.243c.817-1.349 1.436-2.822 1.826-4.391l6.457-1.145v-5.5l-6.464-1.076c-.393-1.572-1.012-3.045-1.826-4.392l3.765-5.384-3.889-3.887-5.352 3.824c-1.342-.807-2.817-1.416-4.379-1.799L27.792 3h-5.585l-1.06 6.492c-1.562.383-3.037.993-4.379 1.799l-5.352-3.824-3.889 3.887 3.765 5.384c-.814 1.347-1.433 2.82-1.826 4.392l-6.464 1.076v5.5l6.457 1.145c.39 1.568 1.009 3.041 1.826 4.391l-3.816 5.337 3.887 3.891 5.391-3.776c1.346.808 2.817 1.423 4.379 1.808M26 43L32 37 40 46 48 36"/><path d="M48 34A2 2 0 1 0 48 38 2 2 0 1 0 48 34zM40 44A2 2 0 1 0 40 48 2 2 0 1 0 40 44zM26 41A2 2 0 1 0 26 45 2 2 0 1 0 26 41zM32 35A2 2 0 1 0 32 39 2 2 0 1 0 32 35z"/><path fill="none" stroke="#104E8B" stroke-linecap="round" stroke-miterlimit="10" stroke-width="2" d="M25.001 18A7 7 0 1 0 25.001 32A7 7 0 1 0 25.001 18Z"/></svg>