<svg fill="#104E8B" xmlns="http://www.w3.org/2000/svg"  viewBox="0 0 50 50" width="500px" height="500px"><path fill="none" stroke="#104E8B" stroke-linecap="round" stroke-miterlimit="10" stroke-width="2" d="M19.765 44L3 44 3 3 38 3 38 19.076M38 31.659L38 44 25.635 44"/><path fill="none" stroke="#104E8B" stroke-linecap="round" stroke-miterlimit="10" stroke-width="2" d="M27.457 14.775H36.093V48.775H27.457z" transform="rotate(-134.999 31.775 31.775)"/><path fill="none" stroke="#104E8B" stroke-linecap="round" stroke-miterlimit="10" stroke-width="2" d="M28.841 28.841L31.134 31.134M31.841 25.841L33.376 27.376M34.841 22.841L37.134 25.134M37.841 19.841L39.376 21.376M25.841 31.841L27.376 33.376M22.841 34.841L25.134 37.134M19.841 37.841L21.376 39.376"/><path d="M5.5 7A.5.5 0 1 0 5.5 8 .5.5 0 1 0 5.5 7zM7.5 7A.5.5 0 1 0 7.5 8 .5.5 0 1 0 7.5 7zM9.5 7A.5.5 0 1 0 9.5 8 .5.5 0 1 0 9.5 7zM11.5 7A.5.5 0 1 0 11.5 8 .5.5 0 1 0 11.5 7zM13.5 7A.5.5 0 1 0 13.5 8 .5.5 0 1 0 13.5 7zM15.5 7A.5.5 0 1 0 15.5 8 .5.5 0 1 0 15.5 7zM17.5 7A.5.5 0 1 0 17.5 8 .5.5 0 1 0 17.5 7zM19.5 7A.5.5 0 1 0 19.5 8 .5.5 0 1 0 19.5 7zM21.5 7A.5.5 0 1 0 21.5 8 .5.5 0 1 0 21.5 7zM23.5 7A.5.5 0 1 0 23.5 8 .5.5 0 1 0 23.5 7zM25.5 7A.5.5 0 1 0 25.5 8 .5.5 0 1 0 25.5 7zM27.5 7A.5.5 0 1 0 27.5 8 .5.5 0 1 0 27.5 7zM29.5 7A.5.5 0 1 0 29.5 8 .5.5 0 1 0 29.5 7zM31.5 7A.5.5 0 1 0 31.5 8 .5.5 0 1 0 31.5 7zM33.5 7A.5.5 0 1 0 33.5 8 .5.5 0 1 0 33.5 7zM35.5 7A.5.5 0 1 0 35.5 8 .5.5 0 1 0 35.5 7zM5.5 11A.5.5 0 1 0 5.5 12 .5.5 0 1 0 5.5 11zM7.5 11A.5.5 0 1 0 7.5 12 .5.5 0 1 0 7.5 11zM9.5 11A.5.5 0 1 0 9.5 12 .5.5 0 1 0 9.5 11zM11.5 11A.5.5 0 1 0 11.5 12 .5.5 0 1 0 11.5 11zM13.5 11A.5.5 0 1 0 13.5 12 .5.5 0 1 0 13.5 11zM15.5 11A.5.5 0 1 0 15.5 12 .5.5 0 1 0 15.5 11zM17.5 11A.5.5 0 1 0 17.5 12 .5.5 0 1 0 17.5 11zM19.5 11A.5.5 0 1 0 19.5 12 .5.5 0 1 0 19.5 11zM21.5 11A.5.5 0 1 0 21.5 12 .5.5 0 1 0 21.5 11zM23.5 11A.5.5 0 1 0 23.5 12 .5.5 0 1 0 23.5 11zM25.5 11A.5.5 0 1 0 25.5 12 .5.5 0 1 0 25.5 11zM27.5 11A.5.5 0 1 0 27.5 12 .5.5 0 1 0 27.5 11zM29.5 11A.5.5 0 1 0 29.5 12 .5.5 0 1 0 29.5 11zM31.5 11A.5.5 0 1 0 31.5 12 .5.5 0 1 0 31.5 11zM33.5 11A.5.5 0 1 0 33.5 12 .5.5 0 1 0 33.5 11zM35.5 11A.5.5 0 1 0 35.5 12 .5.5 0 1 0 35.5 11zM5.5 15A.5.5 0 1 0 5.5 16 .5.5 0 1 0 5.5 15zM7.5 15A.5.5 0 1 0 7.5 16 .5.5 0 1 0 7.5 15zM9.5 15A.5.5 0 1 0 9.5 16 .5.5 0 1 0 9.5 15zM11.5 15A.5.5 0 1 0 11.5 16 .5.5 0 1 0 11.5 15zM13.5 15A.5.5 0 1 0 13.5 16 .5.5 0 1 0 13.5 15zM15.5 15A.5.5 0 1 0 15.5 16 .5.5 0 1 0 15.5 15zM17.5 15A.5.5 0 1 0 17.5 16 .5.5 0 1 0 17.5 15zM19.5 15A.5.5 0 1 0 19.5 16 .5.5 0 1 0 19.5 15zM21.5 15A.5.5 0 1 0 21.5 16 .5.5 0 1 0 21.5 15zM23.5 15A.5.5 0 1 0 23.5 16 .5.5 0 1 0 23.5 15zM25.5 15A.5.5 0 1 0 25.5 16 .5.5 0 1 0 25.5 15zM27.5 15A.5.5 0 1 0 27.5 16 .5.5 0 1 0 27.5 15zM29.5 15A.5.5 0 1 0 29.5 16 .5.5 0 1 0 29.5 15zM31.5 15A.5.5 0 1 0 31.5 16 .5.5 0 1 0 31.5 15zM33.5 15A.5.5 0 1 0 33.5 16 .5.5 0 1 0 33.5 15zM35.5 15A.5.5 0 1 0 35.5 16 .5.5 0 1 0 35.5 15zM5.5 19A.5.5 0 1 0 5.5 20 .5.5 0 1 0 5.5 19zM7.5 19A.5.5 0 1 0 7.5 20 .5.5 0 1 0 7.5 19zM9.5 19A.5.5 0 1 0 9.5 20 .5.5 0 1 0 9.5 19zM11.5 19A.5.5 0 1 0 11.5 20 .5.5 0 1 0 11.5 19zM13.5 19A.5.5 0 1 0 13.5 20 .5.5 0 1 0 13.5 19zM15.5 19A.5.5 0 1 0 15.5 20 .5.5 0 1 0 15.5 19zM17.5 19A.5.5 0 1 0 17.5 20 .5.5 0 1 0 17.5 19zM19.5 19A.5.5 0 1 0 19.5 20 .5.5 0 1 0 19.5 19zM21.5 19A.5.5 0 1 0 21.5 20 .5.5 0 1 0 21.5 19zM23.5 19A.5.5 0 1 0 23.5 20 .5.5 0 1 0 23.5 19zM25.5 19A.5.5 0 1 0 25.5 20 .5.5 0 1 0 25.5 19zM27.5 19A.5.5 0 1 0 27.5 20 .5.5 0 1 0 27.5 19zM29.5 19A.5.5 0 1 0 29.5 20 .5.5 0 1 0 29.5 19zM31.5 19A.5.5 0 1 0 31.5 20 .5.5 0 1 0 31.5 19zM33.5 19A.5.5 0 1 0 33.5 20 .5.5 0 1 0 33.5 19zM35.5 19A.5.5 0 1 0 35.5 20 .5.5 0 1 0 35.5 19zM5.5 23A.5.5 0 1 0 5.5 24 .5.5 0 1 0 5.5 23zM7.5 23A.5.5 0 1 0 7.5 24 .5.5 0 1 0 7.5 23zM9.5 23A.5.5 0 1 0 9.5 24 .5.5 0 1 0 9.5 23zM11.5 23A.5.5 0 1 0 11.5 24 .5.5 0 1 0 11.5 23zM13.5 23A.5.5 0 1 0 13.5 24 .5.5 0 1 0 13.5 23zM15.5 23A.5.5 0 1 0 15.5 24 .5.5 0 1 0 15.5 23zM17.5 23A.5.5 0 1 0 17.5 24 .5.5 0 1 0 17.5 23zM19.5 23A.5.5 0 1 0 19.5 24 .5.5 0 1 0 19.5 23zM21.5 23A.5.5 0 1 0 21.5 24 .5.5 0 1 0 21.5 23zM23.5 23A.5.5 0 1 0 23.5 24 .5.5 0 1 0 23.5 23zM25.5 23A.5.5 0 1 0 25.5 24 .5.5 0 1 0 25.5 23zM27.5 23A.5.5 0 1 0 27.5 24 .5.5 0 1 0 27.5 23zM29.5 23A.5.5 0 1 0 29.5 24 .5.5 0 1 0 29.5 23zM31.5 23A.5.5 0 1 0 31.5 24 .5.5 0 1 0 31.5 23zM33.5 23A.5.5 0 1 0 33.5 24 .5.5 0 1 0 33.5 23zM5.5 27A.5.5 0 1 0 5.5 28 .5.5 0 1 0 5.5 27zM7.5 27A.5.5 0 1 0 7.5 28 .5.5 0 1 0 7.5 27zM9.5 27A.5.5 0 1 0 9.5 28 .5.5 0 1 0 9.5 27zM11.5 27A.5.5 0 1 0 11.5 28 .5.5 0 1 0 11.5 27zM13.5 27A.5.5 0 1 0 13.5 28 .5.5 0 1 0 13.5 27zM15.5 27A.5.5 0 1 0 15.5 28 .5.5 0 1 0 15.5 27zM17.5 27A.5.5 0 1 0 17.5 28 .5.5 0 1 0 17.5 27zM19.5 27A.5.5 0 1 0 19.5 28 .5.5 0 1 0 19.5 27zM21.5 27A.5.5 0 1 0 21.5 28 .5.5 0 1 0 21.5 27zM23.5 27A.5.5 0 1 0 23.5 28 .5.5 0 1 0 23.5 27zM25.5 27A.5.5 0 1 0 25.5 28 .5.5 0 1 0 25.5 27zM27.5 27A.5.5 0 1 0 27.5 28 .5.5 0 1 0 27.5 27zM29.5 27A.5.5 0 1 0 29.5 28 .5.5 0 1 0 29.5 27zM5.5 31A.5.5 0 1 0 5.5 32 .5.5 0 1 0 5.5 31zM7.5 31A.5.5 0 1 0 7.5 32 .5.5 0 1 0 7.5 31zM9.5 31A.5.5 0 1 0 9.5 32 .5.5 0 1 0 9.5 31zM11.5 31A.5.5 0 1 0 11.5 32 .5.5 0 1 0 11.5 31zM13.5 31A.5.5 0 1 0 13.5 32 .5.5 0 1 0 13.5 31zM15.5 31A.5.5 0 1 0 15.5 32 .5.5 0 1 0 15.5 31zM17.5 31A.5.5 0 1 0 17.5 32 .5.5 0 1 0 17.5 31zM19.5 31A.5.5 0 1 0 19.5 32 .5.5 0 1 0 19.5 31zM21.5 31A.5.5 0 1 0 21.5 32 .5.5 0 1 0 21.5 31zM23.5 31A.5.5 0 1 0 23.5 32 .5.5 0 1 0 23.5 31zM25.5 31A.5.5 0 1 0 25.5 32 .5.5 0 1 0 25.5 31zM5.5 35A.5.5 0 1 0 5.5 36 .5.5 0 1 0 5.5 35zM7.5 35A.5.5 0 1 0 7.5 36 .5.5 0 1 0 7.5 35zM9.5 35A.5.5 0 1 0 9.5 36 .5.5 0 1 0 9.5 35zM11.5 35A.5.5 0 1 0 11.5 36 .5.5 0 1 0 11.5 35zM13.5 35A.5.5 0 1 0 13.5 36 .5.5 0 1 0 13.5 35zM15.5 35A.5.5 0 1 0 15.5 36 .5.5 0 1 0 15.5 35zM17.5 35A.5.5 0 1 0 17.5 36 .5.5 0 1 0 17.5 35zM19.5 35A.5.5 0 1 0 19.5 36 .5.5 0 1 0 19.5 35zM21.5 35A.5.5 0 1 0 21.5 36 .5.5 0 1 0 21.5 35zM35.5 35A.5.5 0 1 0 35.5 36 .5.5 0 1 0 35.5 35zM5.5 39A.5.5 0 1 0 5.5 40 .5.5 0 1 0 5.5 39zM7.5 39A.5.5 0 1 0 7.5 40 .5.5 0 1 0 7.5 39zM7.5 5A.5.5 0 1 0 7.5 6 .5.5 0 1 0 7.5 5zM7.5 9A.5.5 0 1 0 7.5 10 .5.5 0 1 0 7.5 9zM7.5 13A.5.5 0 1 0 7.5 14 .5.5 0 1 0 7.5 13zM7.5 17A.5.5 0 1 0 7.5 18 .5.5 0 1 0 7.5 17zM7.5 21A.5.5 0 1 0 7.5 22 .5.5 0 1 0 7.5 21zM7.5 25A.5.5 0 1 0 7.5 26 .5.5 0 1 0 7.5 25zM7.5 29A.5.5 0 1 0 7.5 30 .5.5 0 1 0 7.5 29zM7.5 33A.5.5 0 1 0 7.5 34 .5.5 0 1 0 7.5 33zM7.5 37A.5.5 0 1 0 7.5 38 .5.5 0 1 0 7.5 37zM9.5 39A.5.5 0 1 0 9.5 40 .5.5 0 1 0 9.5 39zM7.5 41A.5.5 0 1 0 7.5 42 .5.5 0 1 0 7.5 41zM11.5 5A.5.5 0 1 0 11.5 6 .5.5 0 1 0 11.5 5zM11.5 9A.5.5 0 1 0 11.5 10 .5.5 0 1 0 11.5 9zM11.5 13A.5.5 0 1 0 11.5 14 .5.5 0 1 0 11.5 13zM11.5 17A.5.5 0 1 0 11.5 18 .5.5 0 1 0 11.5 17zM11.5 21A.5.5 0 1 0 11.5 22 .5.5 0 1 0 11.5 21zM11.5 25A.5.5 0 1 0 11.5 26 .5.5 0 1 0 11.5 25zM11.5 29A.5.5 0 1 0 11.5 30 .5.5 0 1 0 11.5 29zM11.5 33A.5.5 0 1 0 11.5 34 .5.5 0 1 0 11.5 33zM11.5 37A.5.5 0 1 0 11.5 38 .5.5 0 1 0 11.5 37zM11.5 41A.5.5 0 1 0 11.5 42 .5.5 0 1 0 11.5 41zM15.5 5A.5.5 0 1 0 15.5 6 .5.5 0 1 0 15.5 5zM15.5 9A.5.5 0 1 0 15.5 10 .5.5 0 1 0 15.5 9zM15.5 13A.5.5 0 1 0 15.5 14 .5.5 0 1 0 15.5 13zM15.5 17A.5.5 0 1 0 15.5 18 .5.5 0 1 0 15.5 17zM15.5 21A.5.5 0 1 0 15.5 22 .5.5 0 1 0 15.5 21zM15.5 25A.5.5 0 1 0 15.5 26 .5.5 0 1 0 15.5 25zM15.5 29A.5.5 0 1 0 15.5 30 .5.5 0 1 0 15.5 29zM15.5 33A.5.5 0 1 0 15.5 34 .5.5 0 1 0 15.5 33zM15.5 37A.5.5 0 1 0 15.5 38 .5.5 0 1 0 15.5 37zM15.5 41A.5.5 0 1 0 15.5 42 .5.5 0 1 0 15.5 41zM19.5 5A.5.5 0 1 0 19.5 6 .5.5 0 1 0 19.5 5zM19.5 9A.5.5 0 1 0 19.5 10 .5.5 0 1 0 19.5 9zM19.5 13A.5.5 0 1 0 19.5 14 .5.5 0 1 0 19.5 13zM19.5 17A.5.5 0 1 0 19.5 18 .5.5 0 1 0 19.5 17zM19.5 21A.5.5 0 1 0 19.5 22 .5.5 0 1 0 19.5 21zM19.5 25A.5.5 0 1 0 19.5 26 .5.5 0 1 0 19.5 25zM19.5 29A.5.5 0 1 0 19.5 30 .5.5 0 1 0 19.5 29zM19.5 33A.5.5 0 1 0 19.5 34 .5.5 0 1 0 19.5 33zM19.5 37A.5.5 0 1 0 19.5 38 .5.5 0 1 0 19.5 37zM23.5 5A.5.5 0 1 0 23.5 6 .5.5 0 1 0 23.5 5zM23.5 9A.5.5 0 1 0 23.5 10 .5.5 0 1 0 23.5 9zM23.5 13A.5.5 0 1 0 23.5 14 .5.5 0 1 0 23.5 13zM23.5 17A.5.5 0 1 0 23.5 18 .5.5 0 1 0 23.5 17zM23.5 21A.5.5 0 1 0 23.5 22 .5.5 0 1 0 23.5 21zM23.5 25A.5.5 0 1 0 23.5 26 .5.5 0 1 0 23.5 25zM23.5 29A.5.5 0 1 0 23.5 30 .5.5 0 1 0 23.5 29zM23.5 33A.5.5 0 1 0 23.5 34 .5.5 0 1 0 23.5 33zM27.5 5A.5.5 0 1 0 27.5 6 .5.5 0 1 0 27.5 5zM27.5 9A.5.5 0 1 0 27.5 10 .5.5 0 1 0 27.5 9zM27.5 13A.5.5 0 1 0 27.5 14 .5.5 0 1 0 27.5 13zM27.5 17A.5.5 0 1 0 27.5 18 .5.5 0 1 0 27.5 17zM27.5 21A.5.5 0 1 0 27.5 22 .5.5 0 1 0 27.5 21zM27.5 25A.5.5 0 1 0 27.5 26 .5.5 0 1 0 27.5 25zM27.5 29A.5.5 0 1 0 27.5 30 .5.5 0 1 0 27.5 29zM31.5 5A.5.5 0 1 0 31.5 6 .5.5 0 1 0 31.5 5zM31.5 9A.5.5 0 1 0 31.5 10 .5.5 0 1 0 31.5 9zM31.5 13A.5.5 0 1 0 31.5 14 .5.5 0 1 0 31.5 13zM31.5 17A.5.5 0 1 0 31.5 18 .5.5 0 1 0 31.5 17zM31.5 21A.5.5 0 1 0 31.5 22 .5.5 0 1 0 31.5 21zM31.5 25A.5.5 0 1 0 31.5 26 .5.5 0 1 0 31.5 25zM31.5 41A.5.5 0 1 0 31.5 42 .5.5 0 1 0 31.5 41zM35.5 5A.5.5 0 1 0 35.5 6 .5.5 0 1 0 35.5 5zM35.5 9A.5.5 0 1 0 35.5 10 .5.5 0 1 0 35.5 9zM35.5 13A.5.5 0 1 0 35.5 14 .5.5 0 1 0 35.5 13zM35.5 17A.5.5 0 1 0 35.5 18 .5.5 0 1 0 35.5 17zM35.5 21A.5.5 0 1 0 35.5 22 .5.5 0 1 0 35.5 21zM35.5 37A.5.5 0 1 0 35.5 38 .5.5 0 1 0 35.5 37zM35.5 41A.5.5 0 1 0 35.5 42 .5.5 0 1 0 35.5 41zM11.5 39A.5.5 0 1 0 11.5 40 .5.5 0 1 0 11.5 39zM13.5 39A.5.5 0 1 0 13.5 40 .5.5 0 1 0 13.5 39zM15.5 39A.5.5 0 1 0 15.5 40 .5.5 0 1 0 15.5 39zM17.5 39A.5.5 0 1 0 17.5 40 .5.5 0 1 0 17.5 39zM31.5 39A.5.5 0 1 0 31.5 40 .5.5 0 1 0 31.5 39zM33.5 39A.5.5 0 1 0 33.5 40 .5.5 0 1 0 33.5 39zM35.5 39A.5.5 0 1 0 35.5 40 .5.5 0 1 0 35.5 39z"/></svg>