<svg fill="#104E8B" xmlns="http://www.w3.org/2000/svg"  viewBox="0 0 50 50" width="500px" height="500px"><path d="M 24.140625 2 C 22.992188 2 22.144531 2.949219 22.058594 4.074219 C 19.710938 4.371094 17.90625 5.660156 16.792969 7.328125 C 15.621094 9.089844 15.132813 11.160156 15.0625 13.003906 C 14.902344 13.050781 14.78125 13.066406 14.503906 13.222656 C 14.089844 13.457031 13.652344 13.910156 13.390625 14.53125 C 13.128906 15.152344 13 15.933594 13 17 L 13 17.78125 L 13.757813 17.96875 C 13.757813 17.96875 14.445313 18.109375 15.425781 18.277344 C 15.488281 18.542969 15.554688 18.78125 15.625 18.996094 C 15.695313 19.214844 15.773438 19.484375 15.847656 19.71875 C 15.714844 19.847656 15.605469 19.878906 15.476563 20.066406 C 15.136719 20.558594 14.890625 21.285156 14.988281 22.121094 C 15.226563 24.097656 16.117188 25.070313 17.105469 25.546875 C 17.257813 26.5625 17.507813 27.613281 17.875 28.507813 C 18.082031 29.023438 18.3125 29.484375 18.5625 29.878906 C 18.675781 30.058594 18.867188 30.175781 19 30.332031 C 18.996094 31.105469 18.992188 32.035156 18.988281 32.902344 L 18.902344 32.902344 C 18.722656 32.898438 18.546875 32.945313 18.390625 33.035156 C 18.390625 33.035156 16.71875 34.109375 15.324219 36.0625 C 9.125 37.480469 5 42.449219 5 47 C 5 47.550781 5.449219 48 6 48 L 22.660156 48 C 22.824219 48.042969 23 48.042969 23.160156 48 L 26.839844 48 C 27.003906 48.042969 27.175781 48.042969 27.339844 48 L 44 48 C 44.550781 48 45 47.550781 45 47 C 45 41.519531 40.0625 37.097656 34.59375 36.152344 C 34.335938 35.800781 33.253906 34.402344 31.730469 33.304688 C 31.542969 33.101563 31.28125 32.988281 31.003906 32.984375 C 31.007813 32.082031 31.003906 31.140625 31.003906 30.328125 C 31.132813 30.175781 31.328125 30.058594 31.441406 29.878906 C 31.691406 29.480469 31.917969 29.019531 32.125 28.503906 C 32.484375 27.609375 32.734375 26.5625 32.886719 25.546875 C 33.871094 25.070313 34.761719 24.097656 35 22.121094 C 35.097656 21.292969 34.859375 20.566406 34.527344 20.074219 C 34.402344 19.890625 34.292969 19.859375 34.160156 19.730469 C 34.335938 19.332031 34.542969 18.96875 34.714844 18.253906 C 35.613281 18.097656 36.246094 17.96875 36.246094 17.96875 L 37 17.78125 L 37 17 C 37 15.925781 36.871094 15.140625 36.609375 14.515625 C 36.347656 13.890625 35.90625 13.441406 35.488281 13.207031 C 35.214844 13.054688 35.097656 13.039063 34.9375 12.996094 C 34.863281 11.148438 34.367188 9.082031 33.191406 7.328125 C 32.074219 5.660156 30.273438 4.375 27.941406 4.078125 C 27.859375 2.949219 27.007813 2 25.859375 2 Z M 24.140625 4 L 25.859375 4 C 25.875 4 26 4.070313 26 4.226563 L 26 4.785156 C 25.980469 4.894531 25.980469 5.003906 26 5.109375 L 26 11 C 25.996094 11.359375 26.183594 11.695313 26.496094 11.878906 C 26.808594 12.058594 27.191406 12.058594 27.503906 11.878906 C 27.816406 11.695313 28.003906 11.359375 28 11 L 28 6.207031 C 29.53125 6.496094 30.722656 7.238281 31.53125 8.441406 C 32.523438 9.917969 33 11.886719 33 13.453125 C 33 13.75 33.128906 14.140625 33.359375 14.386719 C 33.589844 14.632813 33.824219 14.71875 33.984375 14.773438 C 34.296875 14.882813 34.429688 14.90625 34.511719 14.953125 C 34.59375 14.996094 34.652344 15.019531 34.765625 15.289063 C 34.824219 15.429688 34.84375 15.882813 34.890625 16.183594 C 34.65625 16.230469 34.289063 16.308594 33.820313 16.386719 C 33.746094 16.390625 33.675781 16.402344 33.605469 16.421875 C 32.03125 16.675781 29.277344 17 25.003906 17 C 20.855469 17 18.164063 16.695313 16.5625 16.441406 C 16.476563 16.417969 16.386719 16.40625 16.296875 16.40625 C 15.761719 16.316406 15.367188 16.238281 15.113281 16.183594 C 15.15625 15.886719 15.175781 15.445313 15.234375 15.304688 C 15.347656 15.035156 15.410156 15.011719 15.496094 14.964844 C 15.578125 14.914063 15.714844 14.886719 16.03125 14.773438 C 16.1875 14.714844 16.417969 14.625 16.644531 14.382813 C 16.875 14.140625 17 13.75 17 13.453125 C 17 11.886719 17.46875 9.917969 18.453125 8.4375 C 19.257813 7.234375 20.453125 6.492188 22 6.203125 L 22 11 C 21.996094 11.359375 22.183594 11.695313 22.496094 11.878906 C 22.808594 12.058594 23.191406 12.058594 23.503906 11.878906 C 23.816406 11.695313 24.003906 11.359375 24 11 L 24 5.121094 C 24.019531 5.011719 24.019531 4.902344 24 4.792969 L 24 4.226563 C 24 4.070313 24.128906 4 24.140625 4 Z M 32.53125 18.574219 C 32.390625 18.90625 32.238281 19.191406 32.074219 19.683594 L 31.824219 20.441406 L 32.503906 20.855469 C 32.597656 20.914063 32.761719 21.039063 32.871094 21.195313 C 32.976563 21.351563 33.058594 21.523438 33.015625 21.878906 C 32.785156 23.777344 31.753906 24.019531 31.921875 24.003906 L 31.097656 24.070313 L 31.011719 24.890625 C 30.914063 25.800781 30.617188 26.894531 30.269531 27.753906 C 30.097656 28.1875 29.90625 28.558594 29.75 28.8125 C 29.589844 29.070313 29.40625 29.1875 29.542969 29.113281 L 29.003906 29.394531 L 29.003906 30 C 29.003906 31.113281 29.003906 32.476563 29.003906 33.800781 C 28.988281 33.882813 28.984375 33.964844 28.988281 34.046875 C 28.976563 34.226563 28.898438 34.402344 28.65625 34.640625 C 28.394531 34.902344 27.96875 35.171875 27.519531 35.386719 C 26.6875 35.78125 25.894531 35.972656 25.769531 36 L 24.230469 36 C 24.105469 35.972656 23.3125 35.78125 22.480469 35.386719 C 22.03125 35.171875 21.605469 34.902344 21.34375 34.640625 C 21.082031 34.382813 21 34.199219 21 34 C 21 33.941406 20.996094 33.886719 20.984375 33.828125 C 20.992188 32.480469 21 31.125 21 30 L 21 29.394531 L 20.464844 29.113281 C 20.597656 29.183594 20.414063 29.066406 20.25 28.8125 C 20.089844 28.558594 19.898438 28.183594 19.722656 27.75 C 19.375 26.890625 19.074219 25.800781 18.976563 24.894531 L 18.890625 24.070313 L 18.0625 24.003906 C 18.234375 24.019531 17.203125 23.777344 16.976563 21.878906 C 16.933594 21.527344 17.011719 21.359375 17.125 21.203125 C 17.234375 21.042969 17.402344 20.914063 17.503906 20.855469 L 18.136719 20.46875 L 17.953125 19.75 C 17.8125 19.207031 17.691406 18.886719 17.589844 18.589844 C 19.460938 18.804688 21.9375 19 25.003906 19 C 28.136719 19 30.652344 18.796875 32.53125 18.574219 Z M 18.25 35.660156 C 18.359375 36.125 18.488281 36.613281 18.644531 37.1875 C 19.019531 38.527344 19.511719 40.09375 20 41.597656 C 20.605469 43.449219 21.117188 44.929688 21.488281 46 L 18.480469 46 L 15.441406 42.203125 L 17.378906 40.8125 C 17.71875 40.570313 17.875 40.144531 17.765625 39.742188 L 17.042969 37.03125 C 17.472656 36.441406 17.886719 35.988281 18.25 35.660156 Z M 31.671875 35.957031 C 32.285156 36.554688 32.65625 36.972656 32.894531 37.253906 L 32.234375 39.742188 C 32.125 40.144531 32.28125 40.570313 32.621094 40.8125 L 34.558594 42.203125 L 31.519531 46 L 28.511719 46 C 28.882813 44.929688 29.394531 43.449219 30 41.597656 C 30.488281 40.09375 30.980469 38.527344 31.355469 37.1875 C 31.480469 36.722656 31.574219 36.347656 31.671875 35.957031 Z M 20.550781 36.574219 C 20.902344 36.816406 21.265625 37.023438 21.621094 37.191406 C 22.164063 37.449219 22.691406 37.632813 23.105469 37.761719 L 24 40 L 22.886719 43.898438 C 22.574219 42.996094 22.257813 42.074219 21.902344 40.976563 C 21.414063 39.492188 20.929688 37.941406 20.574219 36.652344 C 20.5625 36.621094 20.5625 36.601563 20.550781 36.574219 Z M 29.449219 36.574219 C 29.4375 36.601563 29.4375 36.621094 29.425781 36.652344 C 29.070313 37.941406 28.585938 39.492188 28.097656 40.976563 C 27.742188 42.074219 27.425781 42.996094 27.113281 43.898438 L 26 40 L 26.894531 37.761719 C 27.308594 37.632813 27.835938 37.449219 28.378906 37.191406 C 28.734375 37.023438 29.097656 36.816406 29.449219 36.574219 Z M 15.253906 38.082031 L 15.65625 39.589844 L 13.417969 41.1875 C 13.195313 41.34375 13.046875 41.589844 13.007813 41.863281 C 12.972656 42.132813 13.046875 42.410156 13.21875 42.625 L 15.917969 46 L 7.238281 46 C 7.789063 42.960938 10.691406 39.335938 15.253906 38.082031 Z M 34.730469 38.144531 C 38.738281 39.042969 42.183594 42.316406 42.761719 46 L 34.082031 46 L 36.78125 42.625 C 36.953125 42.410156 37.027344 42.132813 36.992188 41.863281 C 36.953125 41.589844 36.804688 41.34375 36.582031 41.1875 L 34.34375 39.589844 Z"/></svg>