<svg fill="#104E8B" xmlns="http://www.w3.org/2000/svg"  viewBox="0 0 50 50" width="500px" height="500px"><path d="M 7.953125 1.988281 C 7.914063 1.988281 7.875 1.992188 7.835938 2 L 7 2 L 7 2.855469 C 6.988281 2.945313 6.988281 3.03125 7 3.121094 L 7 48 L 43 48 L 43 3.125 C 43.011719 3.035156 43.011719 2.949219 43 2.859375 L 43 2 L 42.15625 2 C 42.109375 1.992188 42.0625 1.988281 42.015625 1.988281 C 41.964844 1.988281 41.914063 1.992188 41.859375 2 L 8.15625 2 C 8.085938 1.988281 8.019531 1.984375 7.953125 1.988281 Z M 9.953125 4 L 40.046875 4 L 37.359375 7.734375 L 36.066406 6.804688 L 34.898438 8.425781 L 36.191406 9.359375 L 35.242188 10.679688 L 33.933594 9.757813 L 32.78125 11.390625 L 34.074219 12.304688 L 33.152344 13.582031 L 31.859375 12.652344 L 30.6875 14.277344 L 31.984375 15.207031 L 31.03125 16.53125 L 29.71875 15.609375 L 28.566406 17.238281 L 29.863281 18.15625 L 28.925781 19.457031 L 27.621094 18.535156 L 26.46875 20.171875 L 27.757813 21.082031 L 26.375 23 L 23.625 23 L 22.242188 21.082031 L 23.53125 20.171875 L 22.378906 18.535156 L 21.074219 19.457031 L 20.136719 18.15625 L 21.433594 17.238281 L 20.28125 15.609375 L 18.96875 16.53125 L 18.015625 15.207031 L 19.3125 14.277344 L 18.140625 12.652344 L 16.847656 13.582031 L 15.925781 12.304688 L 17.21875 11.390625 L 16.066406 9.757813 L 14.757813 10.679688 L 13.808594 9.359375 L 15.101563 8.425781 L 13.933594 6.804688 L 12.640625 7.734375 Z M 9 6.101563 L 21.585938 23.59375 C 21.226563 23.957031 21 24.457031 21 25 L 21 27 C 21 27.597656 21.277344 28.136719 21.703125 28.503906 C 21.519531 28.953125 21.296875 29.503906 21.0625 30.125 C 20.554688 31.488281 20 32.910156 20 34.117188 C 20 36.8125 22.269531 39 25 39 C 27.730469 39 30 36.8125 30 34.117188 C 30 32.910156 29.445313 31.488281 28.9375 30.125 C 28.703125 29.503906 28.480469 28.953125 28.296875 28.503906 C 28.722656 28.136719 29 27.597656 29 27 L 29 25 C 29 24.457031 28.773438 23.957031 28.414063 23.59375 L 41 6.101563 L 41 46 L 9 46 Z M 23.316406 25 L 26.679688 25 C 26.785156 25.019531 26.894531 25.023438 27 25.011719 L 27 27 L 23 27 L 23 25.011719 C 23.105469 25.023438 23.214844 25.019531 23.316406 25 Z M 23.671875 29 L 26.328125 29 C 26.484375 29.375 26.695313 29.84375 27.0625 30.828125 C 27.554688 32.132813 28 33.769531 28 34.117188 C 28 35.691406 26.671875 37 25 37 C 23.328125 37 22 35.691406 22 34.117188 C 22 33.769531 22.445313 32.132813 22.9375 30.828125 C 23.304688 29.84375 23.515625 29.375 23.671875 29 Z M 25 32.792969 C 24.21875 32.792969 23.582031 33.410156 23.582031 34.167969 C 23.582031 34.925781 24.21875 35.542969 25 35.542969 C 25.78125 35.542969 26.417969 34.925781 26.417969 34.167969 C 26.417969 33.410156 25.78125 32.792969 25 32.792969 Z"/></svg>